<svg version="1.1" id="Layer_1" xmlns="http://www.w3.org/2000/svg" xmlns:xlink="http://www.w3.org/1999/xlink" x="0px" y="0px"
	 width="35px" height="35px" viewBox="0 0 35 35" enable-background="new 0 0 35 35" xml:space="preserve">
<circle fill="#5C3969" cx="78.506" cy="17.474" r="17.5"/>
<path fill="#FFFFFF" d="M20.5,13.26h-1.713c-0.203,0-0.43,0.32-0.43,0.75v1.489H20.5v2.124h-2.143V24h-2.023v-6.377H14.5v-2.124
	h1.834V14.25c0-1.793,1.034-3.25,2.453-3.25H20.5V13.26z"/>
<circle fill="#5C3969" cx="78.506" cy="-37.526" r="17.5"/>
<circle fill="#5C3969" cx="78.834" cy="72.474" r="17.5"/>
<path fill="#FFFFFF" d="M22.5-40.729c-0.368,0.17-0.764,0.285-1.179,0.336c0.423-0.264,0.749-0.683,0.902-1.182
	c-0.396,0.245-0.835,0.423-1.303,0.519c-0.374-0.416-0.907-0.675-1.498-0.675c-1.133,0-2.051,0.957-2.051,2.136
	c0,0.167,0.019,0.331,0.053,0.487c-1.705-0.089-3.217-0.939-4.229-2.232c-0.176,0.316-0.278,0.683-0.278,1.074
	c0,0.741,0.362,1.395,0.913,1.778c-0.336-0.011-0.652-0.107-0.929-0.267c0,0.008,0,0.018,0,0.027c0,1.035,0.707,1.898,1.646,2.094
	c-0.172,0.049-0.354,0.075-0.541,0.075c-0.132,0-0.26-0.013-0.386-0.038c0.261,0.849,1.02,1.467,1.917,1.483
	c-0.702,0.573-1.587,0.915-2.548,0.915c-0.166,0-0.33-0.01-0.49-0.03c0.908,0.606,1.986,0.96,3.145,0.96
	c3.774,0,5.836-3.255,5.836-6.078c0-0.093-0.002-0.185-0.006-0.276C21.877-39.924,22.225-40.301,22.5-40.729z"/>
<path fill="#FFFFFF" d="M20.523,72.5c0,1.671-1.354,3.023-3.023,3.023c-1.67,0-3.023-1.353-3.023-3.023
	c0-0.198,0.02-0.393,0.057-0.581H12.5v4.019c0,0.864,0.699,1.562,1.562,1.562h6.875c0.862,0,1.562-0.698,1.562-1.562v-4.019h-2.033
	C20.503,72.107,20.523,72.302,20.523,72.5z M20.938,67.5h-6.875c-0.863,0-1.562,0.7-1.562,1.562v1.693h2.531
	c0.547-0.773,1.449-1.278,2.469-1.278s1.921,0.505,2.469,1.278H22.5v-1.693C22.5,68.2,21.8,67.5,20.938,67.5z M21.701,69.431
	c0,0.153-0.125,0.279-0.279,0.279h-0.837c-0.153,0-0.279-0.126-0.279-0.279v-0.837c0-0.154,0.126-0.279,0.279-0.279h0.837
	c0.154,0,0.279,0.125,0.279,0.279V69.431z M19.36,72.5c0-1.027-0.833-1.86-1.86-1.86c-1.028,0-1.86,0.833-1.86,1.86
	s0.833,1.86,1.86,1.86C18.527,74.36,19.36,73.527,19.36,72.5z"/>
</svg>
